<svg width="149" height="172" xmlns="http://www.w3.org/2000/svg" xmlns:xlink="http://www.w3.org/1999/xlink" overflow="hidden"><defs><clipPath id="clip0"><rect x="2942" y="154" width="149" height="172"/></clipPath></defs><g clip-path="url(#clip0)" transform="translate(-2942 -154)"><path d="M2954.5 187.5C2954.5 181.425 2982.26 176.5 3016.5 176.5 3050.74 176.5 3078.5 181.425 3078.5 187.5 3078.5 193.575 3050.74 198.5 3016.5 198.5 2982.26 198.5 2954.5 193.575 2954.5 187.5Z" stroke="#FFFFFF" stroke-width="8.59393" stroke-miterlimit="8" fill="#FFFFFF" fill-rule="evenodd"/><path d="M2950.5 186.707C3003.42 164.5 3030.73 166.086 3084.5 187.5" stroke="#009234" stroke-width="6.875" stroke-miterlimit="8" fill="none" fill-rule="evenodd"/><path d="M2944.5 182.5C2987.96 158.281 3043.34 157.5 3088.5 181.719" stroke="#FFFFFF" stroke-width="6.875" stroke-miterlimit="8" fill="none" fill-rule="evenodd"/><path d="M3016.42 244C2977.39 244 2946 231.862 2946 216.69L2946 178C2946 192.414 2977.39 205.31 3016.42 205.31 3054.61 205.31 3086 192.414 3086 178L3086 216.69C3086 231.862 3054.61 244 3016.42 244Z" stroke="#FFFFFF" stroke-width="5.72917" stroke-miterlimit="8" fill="#009234" fill-rule="evenodd"/><path d="M3016.42 284C2977.39 284 2946 271.862 2946 256.69L2946 218C2946 233.172 2977.39 245.31 3016.42 245.31 3054.61 245.31 3086 233.172 3086 218L3086 256.69C3086 271.862 3054.61 284 3016.42 284Z" stroke="#FFFFFF" stroke-width="5.72917" stroke-miterlimit="8" fill="#D9D9D9" fill-rule="evenodd"/><path d="M3016.42 323C2977.39 323 2946 310.057 2946 294.83L2946 256C2946 271.227 2977.39 283.409 3016.42 283.409 3054.61 283.409 3086 271.227 3086 256L3086 294.83C3086 310.057 3054.61 323 3016.42 323Z" stroke="#FFFFFF" stroke-width="5.72917" stroke-miterlimit="8" fill="#E20119" fill-rule="evenodd"/></g></svg>